<svg width="32" height="33" viewBox="0 0 32 33" fill="none" xmlns="http://www.w3.org/2000/svg">
<g clip-path="url(#clip0_3083_13869)">
<path d="M16.0005 32.8373C24.837 32.8373 32.0005 25.6738 32.0005 16.8373C32.0005 8.00072 24.837 0.83728 16.0005 0.83728C7.16393 0.83728 0.000488281 8.00072 0.000488281 16.8373C0.000488281 25.6738 7.16393 32.8373 16.0005 32.8373Z" fill="#224BA4"/>
<g clip-path="url(#clip1_3083_13869)">
<path d="M10.4357 8.91579C12.8213 10.7054 15.3872 14.334 16.3293 16.2813C17.2715 14.3342 19.8373 10.7054 22.2229 8.91579C23.9443 7.62447 26.7332 6.62532 26.7332 9.80466C26.7332 10.4396 26.3689 15.1386 26.1552 15.9015C25.4125 18.5538 22.706 19.2302 20.2985 18.8208C24.5067 19.5365 25.5773 21.9071 23.2653 24.2778C18.8745 28.78 16.9545 23.1481 16.4623 21.705C16.3721 21.4405 16.3299 21.3167 16.3293 21.4219C16.3286 21.3167 16.2864 21.4405 16.1962 21.705C15.7042 23.1481 13.7842 28.7802 9.39316 24.2778C7.0812 21.9071 8.15169 19.5364 12.36 18.8208C9.95243 19.2302 7.24591 18.5538 6.50328 15.9015C6.2896 15.1386 5.92529 10.4396 5.92529 9.80466C5.92529 6.62532 8.71433 7.62447 10.4356 8.91579H10.4357Z" fill="#F9FAFB"/>
</g>
</g>
<defs>
<clipPath id="clip0_3083_13869">
<rect width="32" height="32" fill="white" transform="translate(0 0.837402)"/>
</clipPath>
<clipPath id="clip1_3083_13869">
<rect width="21.5253" height="19" fill="white" transform="translate(5.56641 7.3374)"/>
</clipPath>
</defs>
</svg>
