<svg width="155" height="154" viewBox="0 0 155 154" fill="none" xmlns="http://www.w3.org/2000/svg">
<g clip-path="url(#clip0_54_273)">
<mask id="mask0_54_273" style="mask-type:luminance" maskUnits="userSpaceOnUse" x="0" y="0" width="155" height="154">
<path d="M154.76 89.1762L92.798 0L2.15173e-05 64.479L61.9625 153.655L154.76 89.1762Z" fill="white"/>
</mask>
<g mask="url(#mask0_54_273)">
<path d="M126.397 97.8646L74.7621 23.5511L28.3631 55.7906L79.9985 130.104L126.397 97.8646Z" stroke="white" stroke-width="10" stroke-linecap="round" stroke-linejoin="round"/>
<path d="M110.931 108.611C109.575 106.659 108.632 104.449 108.157 102.105C107.681 99.7622 107.682 97.332 108.159 94.9541C108.636 92.5758 109.58 90.2965 110.938 88.2458C112.295 86.1951 114.039 84.4131 116.07 83.0019L126.398 97.8646L110.931 108.611Z" stroke="white" stroke-width="10" stroke-linecap="round" stroke-linejoin="round"/>
<path d="M69.6714 115.241C73.7734 112.391 78.7952 111.224 83.6324 111.996C88.4697 112.767 92.7258 115.416 95.4648 119.358L79.9984 130.104L69.6714 115.241Z" stroke="white" stroke-width="10" stroke-linecap="round" stroke-linejoin="round"/>
<path d="M43.8295 45.0441C46.5684 48.9859 47.5657 53.8984 46.6017 58.7012C45.6381 63.5038 42.7923 67.803 38.6902 70.6533L28.3631 55.7906L43.8295 45.0441Z" stroke="white" stroke-width="10" stroke-linecap="round" stroke-linejoin="round"/>
<path d="M85.0892 38.4138C80.9872 41.2639 75.9653 42.4314 71.1281 41.6595C66.2909 40.8876 62.0347 38.2394 59.2958 34.2976L74.7621 23.5511L85.0892 38.4138Z" stroke="white" stroke-width="10" stroke-linecap="round" stroke-linejoin="round"/>
<path d="M92.4016 77.8177L85.3255 67.6338C83.4245 64.8979 79.7194 64.1831 77.05 66.038C74.3805 67.8928 73.758 71.6145 75.659 74.3504L80.2489 80.9561C82.1501 83.6923 81.5274 87.4136 78.8579 89.2685C76.1884 91.1233 72.4836 90.4089 70.5824 87.6726L62.5503 76.1128" stroke="white" stroke-width="10" stroke-linecap="round" stroke-linejoin="round"/>
<path d="M86.9797 70.1576L90.9133 67.4244" stroke="white" stroke-width="10" stroke-linecap="round" stroke-linejoin="round"/>
<path d="M63.7804 86.2772L67.7139 83.5441" stroke="white" stroke-width="10" stroke-linecap="round" stroke-linejoin="round"/>
</g>
</g>
<defs>
<clipPath id="clip0_54_273">
<rect width="108.59" height="113" fill="white" transform="translate(92.798) rotate(55.2072)"/>
</clipPath>
</defs>
</svg>
