<!-- <?xml version="1.0" encoding="UTF-8" standalone="no"?>
<svg
   version="1.1"
   id="Layer_1"
   x="0px"
   y="0px"
   viewBox="0 0 120.78 120.78"
   width="120.78"
   height="120.78"
   xmlns="http://www.w3.org/2000/svg"
   xmlns:svg="http://www.w3.org/2000/svg">
<circle cx="20" cy="20" r="20" fill="#09328B"/>

<path
   d="M 60.39,0 C 27.04,0 0,27.04 0,60.39 c 0,26.68 17.3,49.32 41.3,57.3 3.02,0.56 4.13,-1.31 4.13,-2.91 0,-1.44 -0.06,-6.2 -0.08,-11.24 C 28.54,107.19 25,96.42 25,96.42 c -2.75,-6.98 -6.7,-8.84 -6.7,-8.84 -5.48,-3.75 0.41,-3.67 0.41,-3.67 6.06,0.43 9.26,6.22 9.26,6.22 5.39,9.23 14.13,6.56 17.57,5.02 0.54,-3.9 2.11,-6.57 3.83,-8.08 -13.41,-1.53 -27.51,-6.71 -27.51,-29.84 0,-6.59 2.36,-11.98 6.22,-16.21 -0.63,-1.52 -2.69,-7.66 0.58,-15.98 0,0 5.07,-1.62 16.61,6.19 4.82,-1.34 9.98,-2.01 15.12,-2.03 5.13,0.02 10.3,0.69 15.13,2.03 11.53,-7.81 16.59,-6.19 16.59,-6.19 3.29,8.32 1.22,14.46 0.59,15.98 3.87,4.23 6.21,9.62 6.21,16.21 0,23.19 -14.13,28.3 -27.57,29.8 2.17,1.87 4.1,5.55 4.1,11.18 0,8.08 -0.07,14.58 -0.07,16.57 0,1.61 1.09,3.49 4.15,2.9 23.98,-7.99 41.26,-30.62 41.26,-57.29 C 120.78,27.04 93.74,0 60.39,0 Z"
   fill="#09328B"
 />
<path
   d="M 98.68,25.47"
   fill="#09328B"
 />
</svg> -->



<!-- <svg height="200px" width="200px" version="1.1" id="Layer_1" xmlns="http://www.w3.org/2000/svg" xmlns:xlink="http://www.w3.org/1999/xlink" viewBox="0 0 291.32 291.32" xml:space="preserve" fill="#000000"><g id="SVGRepo_bgCarrier" stroke-width="0"></g><g id="SVGRepo_tracerCarrier" stroke-linecap="round" stroke-linejoin="round"></g><g id="SVGRepo_iconCarrier"> <g> <path style="fill:#2B414D;" d="M145.66,0C65.219,0,0,65.219,0,145.66c0,80.45,65.219,145.66,145.66,145.66 s145.66-65.21,145.66-145.66C291.319,65.219,226.1,0,145.66,0z M186.462,256.625c-0.838-11.398-1.775-25.518-1.83-31.235 c-0.364-4.388-0.838-15.549-11.434-22.677c42.068-3.523,62.087-26.774,63.526-57.499c1.202-17.497-5.754-32.883-18.107-45.3 c0.628-13.282-0.401-29.023-1.256-35.941c-9.486-2.731-31.608,8.949-37.79,13.947c-13.037-5.062-44.945-6.837-64.336,0 c-13.747-9.668-29.396-15.64-37.926-13.974c-7.875,17.452-2.813,33.948-1.275,35.914c-10.142,9.268-24.289,20.675-20.447,44.572 c6.163,35.04,30.816,53.94,70.508,58.564c-8.466,1.73-9.896,8.048-10.606,10.788c-26.656,10.997-34.275-6.791-37.644-11.425 c-11.188-13.847-21.23-9.832-21.849-9.614c-0.601,0.218-1.056,1.092-0.992,1.511c0.564,2.986,6.655,6.018,6.955,6.263 c8.257,6.154,11.316,17.27,13.2,20.438c11.844,19.473,39.374,11.398,39.638,11.562c0.018,1.702-0.191,16.032-0.355,27.184 C64.245,245.992,27.311,200.2,27.311,145.66c0-65.365,52.984-118.348,118.348-118.348S264.008,80.295,264.008,145.66 C264.008,196.668,231.69,239.992,186.462,256.625z"></path> </g> </g></svg> -->


<!-- <svg
    width="100"
    height="100"
    viewBox="0 0 24 24"
    fill="none"
    xmlns="http://www.w3.org/2000/svg"
>
     Outer Circle 
    <circle cx="12" cy="12" r="11" fill="#09328B"/>
    
    GitHub Octocat
    <path
        fill="#fff"
        d="M12 2C6.48 2 2 6.48 2 12c0 4.42 2.87 8.17 6.84 9.49.5.09.68-.22.68-.48v-1.69c-2.78.6-3.36-1.34-3.36-1.34-.46-1.17-1.12-1.48-1.12-1.48-.91-.62.07-.6.07-.6 1 .07 1.52 1.04 1.52 1.04.9 1.52 2.36 1.08 2.94.83.09-.66.35-1.08.64-1.33-2.22-.25-4.56-1.11-4.56-4.94 0-1.09.39-1.99 1.04-2.69-.1-.26-.45-1.27.1-2.64 0 0 .84-.27 2.75 1.02A9.52 9.52 0 0 1 12 6.84c.85 0 1.71.11 2.52.33 1.91-1.29 2.75-1.02 2.75-1.02.55 1.37.2 2.38.1 2.64.64.7 1.04 1.6 1.04 2.69 0 3.84-2.34 4.69-4.58 4.94.36.31.68.91.68 1.84v2.73c0 .27.18.59.69.48A10.003 10.003 0 0 0 22 12c0-5.52-4.48-10-10-10z"
    />
</svg> -->

<!-- 
<svg
    width="100"
    height="100"
    viewBox="0 0 24 24"
    fill="none"
    xmlns="http://www.w3.org/2000/svg"
>
   Outer Circle
    <circle cx="12" cy="12" r="11" fill="white"/>  
    
   GitHub Octocat
    <path
        fill="#09328B"
        d="M12 2C6.48 2 2 6.48 2 12c0 4.42 2.87 8.17 6.84 9.49.5.09.68-.22.68-.48v-1.69c-2.78.6-3.36-1.34-3.36-1.34-.46-1.17-1.12-1.48-1.12-1.48-.91-.62.07-.6.07-.6 1 .07 1.52 1.04 1.52 1.04.9 1.52 2.36 1.08 2.94.83.09-.66.35-1.08.64-1.33-2.22-.25-4.56-1.11-4.56-4.94 0-1.09.39-1.99 1.04-2.69-.1-.26-.45-1.27.1-2.64 0 0 .84-.27 2.75 1.02A9.52 9.52 0 0 1 12 6.84c.85 0 1.71.11 2.52.33 1.91-1.29 2.75-1.02 2.75-1.02.55 1.37.2 2.38.1 2.64.64.7 1.04 1.6 1.04 2.69 0 3.84-2.34 4.69-4.58 4.94.36.31.68.91.68 1.84v2.73c0 .27.18.59.69.48A10.003 10.003 0 0 0 22 12c0-5.52-4.48-10-10-10z"
    />
</svg> -->

<!-- <svg
    width="100"
    height="100"
    viewBox="0 0 24 24"
    fill="none"
    xmlns="http://www.w3.org/2000/svg"
>
   
    <circle cx="12" cy="12" r="11" fill="white" stroke="none"/>  

  
    <path
        fill="#09328B"
        d="M12 2C6.48 2 2 6.48 2 12c0 4.42 2.87 8.17 6.84 9.49.5.09.68-.22.68-.48v-1.69c-2.78.6-3.36-1.34-3.36-1.34-.46-1.17-1.12-1.48-1.12-1.48-.91-.62.07-.6.07-.6 1 .07 1.52 1.04 1.52 1.04.9 1.52 2.36 1.08 2.94.83.09-.66.35-1.08.64-1.33-2.22-.25-4.56-1.11-4.56-4.94 0-1.09.39-1.99 1.04-2.69-.1-.26-.45-1.27.1-2.64 0 0 .84-.27 2.75 1.02A9.52 9.52 0 0 1 12 6.84c.85 0 1.71.11 2.52.33 1.91-1.29 2.75-1.02 2.75-1.02.55 1.37.2 2.38.1 2.64.64.7 1.04 1.6 1.04 2.69 0 3.84-2.34 4.69-4.58 4.94.36.31.68.91.68 1.84v2.73c0 .27.18.59.69.48A10.003 10.003 0 0 0 22 12c0-5.52-4.48-10-10-10z"
    />
</svg> -->


<!-- <svg
    width="100"
    height="100"
    viewBox="0 0 24 24"
    fill="none"
    xmlns="http://www.w3.org/2000/svg"
>
     Outer Circle (Fully Separate, No Outline) 
    <circle cx="12" cy="12" r="11" fill="black"/>  

     GitHub Octocat Logo (Now Independent, No Outline) 
    <path
        fill="white"
        d="M12 2C6.48 2 2 6.48 2 12c0 4.42 2.87 8.17 6.84 9.49.5.09.68-.22.68-.48v-1.69c-2.78.6-3.36-1.34-3.36-1.34-.46-1.17-1.12-1.48-1.12-1.48-.91-.62.07-.6.07-.6 1 .07 1.52 1.04 1.52 1.04.9 1.52 2.36 1.08 2.94.83.09-.66.35-1.08.64-1.33-2.22-.25-4.56-1.11-4.56-4.94 0-1.09.39-1.99 1.04-2.69-.1-.26-.45-1.27.1-2.64 0 0 .84-.27 2.75 1.02A9.52 9.52 0 0 1 12 6.84c.85 0 1.71.11 2.52.33 1.91-1.29 2.75-1.02 2.75-1.02.55 1.37.2 2.38.1 2.64.64.7 1.04 1.6 1.04 2.69 0 3.84-2.34 4.69-4.58 4.94.36.31.68.91.68 1.84v2.73c0 .27.18.59.69.48A10.003 10.003 0 0 0 22 12c0-5.52-4.48-10-10-10z"
    />
</svg> -->


<!-- <svg
    width="100"
    height="100"
    stroke="none"
    viewBox="0 0 24 24"
    fill="none"
    xmlns="http://www.w3.org/2000/svg"
>
    Outer Circle 
    <circle cx="12" cy="12" r="11" fill="white" stroke="none"/>  

    Octocat without the extra outline 
    <path
        fill="#09328B"
         stroke="none" 
        d="M12 2C6.48 2 2 6.48 2 12c0 4.42 2.87 8.17 6.84 9.49.5.09.68-.22.68-.48v-1.69c-2.78.6-3.36-1.34-3.36-1.34-.46-1.17-1.12-1.48-1.12-1.48-.91-.62.07-.6.07-.6 1 .07 1.52 1.04 1.52 1.04.9 1.52 2.36 1.08 2.94.83.09-.66.35-1.08.64-1.33-2.22-.25-4.56-1.11-4.56-4.94 0-1.09.39-1.99 1.04-2.69-.1-.26-.45-1.27.1-2.64 0 0 .84-.27 2.75 1.02A9.52 9.52 0 0 1 12 6.84c.85 0 1.71.11 2.52.33 1.91-1.29 2.75-1.02 2.75-1.02.55 1.37.2 2.38.1 2.64.64.7 1.04 1.6 1.04 2.69 0 3.84-2.34 4.69-4.58 4.94.36.31.68.91.68 1.84v2.73c0 .27.18.59.69.48A10.003 10.003 0 0 0 22 12c0-5.52-4.48-10-10-10z"
    />
</svg> -->


<!-- <svg xmlns="http://www.w3.org/2000/svg" viewBox="0 0 24 24" width="24" height="24">
  <path d="M12 .5C5.65.5.5 5.65.5 12S5.65 23.5 12 23.5 23.5 18.35 23.5 12 18.35.5 12 .5zM8.19 19.35c-.14.03-.21-.06-.21-.13 0-.07.01-.26.01-.52 0-.17-.06-.28-.13-.34 3.42-.38 4.18-2.38 4.18-2.38.31-.79.77-1.1.77-1.1.63-.43 0-.42 0-.42-.69.03-1.06.71-1.06.71-.55.95-1.44.68-1.79.52-.06-.4-.22-.68-.39-.84 2.73-.31 5.6-1.36 5.6-6.07 0-1.34-.48-2.44-1.27-3.3.13-.31.55-1.55-.12-3.23 0 0-1.03-.33-3.37 1.25-.98-.27-2.04-.41-3.09-.41-1.05 0-2.11.14-3.09.41C5.14 2.53 4.11 2.86 4.11 2.86c-.67 1.68-.25 2.92-.12 3.23-.79.86-1.27 1.96-1.27 3.3 0 4.71 2.88 5.76 5.61 6.07-.23.2-.44.57-.51 1.11-.46.21-1.61.55-2.33-.66 0 0-.43-.78-1.24-.83 0 0-.79-.01-.06.5 0 0 .53.25.9 1.17 0 0 .48 1.46 2.78.97 0 .69.01 1.22.01 1.48 0 .07-.08.16-.21.13C3.66 18.91 2 15.64 2 12 2 6.48 6.48 2 12 2s10 4.48 10 10c0 3.64-1.66 6.91-4.81 7.97z"/>
</svg> -->

<!-- <svg xmlns="http://www.w3.org/2000/svg" viewBox="0 0 24 24" width="24" height="24">
  <path fill="none" d="M0 0h24v24H0z"/>
  <path d="M12 .5C5.65.5.5 5.65.5 12S5.65 23.5 12 23.5 23.5 18.35 23.5 12 18.35.5 12 .5zM8.19 19.35c-.14.03-.21-.06-.21-.13 0-.07.01-.26.01-.52 0-.17-.06-.28-.13-.34 3.42-.38 4.18-2.38 4.18-2.38.31-.79.77-1.1.77-1.1.63-.43 0-.42 0-.42-.69.03-1.06.71-1.06.71-.55.95-1.44.68-1.79.52-.06-.4-.22-.68-.39-.84 2.73-.31 5.6-1.36 5.6-6.07 0-1.34-.48-2.44-1.27-3.3.13-.31.55-1.55-.12-3.23 0 0-1.03-.33-3.37 1.25-.98-.27-2.04-.41-3.09-.41-1.05 0-2.11.14-3.09.41C5.14 2.53 4.11 2.86 4.11 2.86c-.67 1.68-.25 2.92-.12 3.23-.79.86-1.27 1.96-1.27 3.3 0 4.71 2.88 5.76 5.61 6.07-.23.2-.44.57-.51 1.11-.46.21-1.61.55-2.33-.66 0 0-.43-.78-1.24-.83 0 0-.79-.01-.06.5 0 0 .53.25.9 1.17 0 0 .48 1.46 2.78.97 0 .69.01 1.22.01 1.48 0 .07-.08.16-.21.13C3.66 18.91 2 15.64 2 12 2 6.48 6.48 2 12 2s10 4.48 10 10c0 3.64-1.66 6.91-4.81 7.97z"/>
</svg> -->

<svg width="32" height="32" viewBox="0 0 32 32" fill="none" xmlns="http://www.w3.org/2000/svg">
<g clip-path="url(#clip0_1402_6376)">
<path d="M16 32C24.8366 32 32 24.8366 32 16C32 7.16344 24.8366 0 16 0C7.16344 0 0 7.16344 0 16C0 24.8366 7.16344 32 16 32Z" fill="#224BA4"/>
<path d="M22.364 11.2262C22.3635 11.131 22.3685 11.0359 22.3792 10.9414C22.3984 10.7574 22.4288 10.5638 22.4616 10.3526C22.4814 10.2299 22.5011 10.1001 22.5208 9.963C22.5656 9.6454 22.616 9.2374 22.5592 8.9246C22.5328 8.7766 22.4536 8.4814 22.1672 8.3086C21.8552 8.1214 21.536 8.2142 21.3552 8.2982C20.9184 8.5014 20.4024 8.727 19.9224 8.8782C19.6824 8.9534 19.4656 9.0062 19.2824 9.0286C19.092 9.0526 18.9768 9.0414 18.9192 9.0246C18.1352 8.7926 17.2864 8.667 16.4 8.667C15.6304 8.667 14.888 8.7622 14.1936 8.939C13.8784 9.019 13.5448 8.979 13.1456 8.847C12.8587 8.74539 12.5773 8.62897 12.3024 8.4982C12.1574 8.43153 12.0022 8.3622 11.8368 8.2902C11.6088 8.1934 11.3168 8.1558 11.036 8.3078C10.7848 8.4438 10.6584 8.6734 10.5936 8.8374C10.4648 9.159 10.4336 9.5806 10.4224 9.9214C10.416 10.1254 10.416 10.3694 10.4152 10.5854C10.4152 10.723 10.4152 10.8494 10.4136 10.947C10.4131 11.0563 10.407 11.1655 10.3952 11.2742V11.2782C9.77124 12.0782 9.40004 13.0286 9.40004 14.0574C9.40004 15.591 10.224 17.0998 11.5152 18.0662C12.1464 18.5382 12.8832 18.8782 13.6824 19.1014C13.5019 19.4264 13.4052 19.7912 13.4008 20.163V20.8494H12.3304C12.0528 20.8494 11.6896 20.6294 11.2936 20.1958C10.924 19.791 10.6424 19.3302 10.5128 19.1174C10.2352 18.6598 9.79764 18.4022 9.27284 18.3382C9.11477 18.3189 8.95551 18.3632 8.83008 18.4613C8.70466 18.5594 8.62335 18.7033 8.60404 18.8614C8.58473 19.0195 8.62901 19.1787 8.72713 19.3042C8.82525 19.4296 8.96917 19.5109 9.12724 19.5302C9.32164 19.5534 9.41764 19.6262 9.48724 19.7406L9.48884 19.7438C9.62164 19.9614 9.95364 20.5086 10.4072 21.0046C10.8352 21.4742 11.5072 22.0494 12.3304 22.0494H13.4L13.4008 23.1998C13.4008 23.531 13.6696 23.7998 14.0008 23.7998H19.1984C19.3573 23.7994 19.5095 23.736 19.6217 23.6235C19.7338 23.511 19.7968 23.3587 19.7968 23.1998V20.1878C19.7968 19.7942 19.6832 19.4014 19.4864 19.0134C20.1952 18.7934 20.8528 18.483 21.4096 18.0662C22.7296 17.0782 23.4 15.555 23.4 14.0574C23.4 13.0054 23.012 12.0366 22.364 11.2262Z" fill="white"/>
</g>
<defs>
<clipPath id="clip0_1402_6376">
<rect width="32" height="32" fill="white"/>
</clipPath>
</defs>
</svg>
























