<svg width="157" height="157" viewBox="0 0 157 157" fill="none" xmlns="http://www.w3.org/2000/svg">
<path fill-rule="evenodd" clip-rule="evenodd" d="M78.5 76.8646C81.2096 76.8646 83.4062 79.0613 83.4062 81.7708V86.6771H88.3125C91.0221 86.6771 93.2188 88.8738 93.2188 91.5833C93.2188 94.2929 91.0221 96.4896 88.3125 96.4896H83.4062V101.396C83.4062 104.105 81.2096 106.302 78.5 106.302C75.7904 106.302 73.5938 104.105 73.5938 101.396V96.4896H68.6875C65.9779 96.4896 63.7812 94.2929 63.7812 91.5833C63.7812 88.8738 65.9779 86.6771 68.6875 86.6771H73.5938V81.7708C73.5938 79.0613 75.7904 76.8646 78.5 76.8646Z" fill="white"/>
<path fill-rule="evenodd" clip-rule="evenodd" d="M78.1598 8.17707C72.2821 8.17687 67.3811 8.17674 63.4903 8.69982C59.3835 9.252 55.6756 10.4666 52.6961 13.4461C49.7166 16.4257 48.502 20.1335 47.9498 24.2403C47.4267 28.1311 47.4269 33.0323 47.4271 38.9098V39.4182C34.2052 39.8508 26.2655 41.3958 20.7473 46.9141C13.0833 54.5781 13.0833 66.9134 13.0833 91.5833C13.0833 116.253 13.0833 128.589 20.7473 136.252C28.4114 143.917 40.7465 143.917 65.4165 143.917H91.5833C116.253 143.917 128.589 143.917 136.252 136.252C143.917 128.589 143.917 116.253 143.917 91.5833C143.917 66.9134 143.917 54.5781 136.252 46.9141C130.735 41.3958 122.795 39.8508 109.573 39.4182V38.9099C109.573 33.0324 109.574 28.1311 109.05 24.2403C108.498 20.1335 107.283 16.4257 104.304 13.4461C101.325 10.4666 97.6167 9.252 93.5098 8.69982C89.6189 8.17674 84.7178 8.17687 78.8401 8.17707H78.1598ZM99.7604 39.2624V39.25C99.7604 32.9438 99.7499 28.7076 99.3254 25.5478C98.9191 22.529 98.2179 21.2371 97.3655 20.3846C96.5131 19.5321 95.2211 18.8307 92.2021 18.4249C89.0425 18 84.8061 17.9896 78.5 17.9896C72.1938 17.9896 67.9574 18 64.7977 18.4249C61.779 18.8307 60.487 19.5321 59.6346 20.3846C58.7821 21.2371 58.0807 22.529 57.6748 25.5478C57.25 28.7076 57.2396 32.9438 57.2396 39.25V39.2624C59.8041 39.25 62.5257 39.25 65.4166 39.25H91.5833C94.4741 39.25 97.1961 39.25 99.7604 39.2624ZM104.667 91.5833C104.667 106.035 92.9512 117.75 78.5 117.75C64.0485 117.75 52.3333 106.035 52.3333 91.5833C52.3333 77.1321 64.0485 65.4167 78.5 65.4167C92.9512 65.4167 104.667 77.1321 104.667 91.5833Z" fill="white"/>
</svg>
