<?xml version="1.0" encoding="UTF-8" standalone="no"?>
<!-- Created with Inkscape (http://www.inkscape.org/) -->

<svg
   version="1.1"
   id="svg1"
   width="1062.4"
   height="512"
   viewBox="0 0 1062.4 512"
   sodipodi:docname="Levant_vector_version_final.svg"
   inkscape:version="1.3.2 (091e20e, 2023-11-25, custom)"
   xml:space="preserve"
   xmlns:inkscape="http://www.inkscape.org/namespaces/inkscape"
   xmlns:sodipodi="http://sodipodi.sourceforge.net/DTD/sodipodi-0.dtd"
   xmlns="http://www.w3.org/2000/svg"
   xmlns:svg="http://www.w3.org/2000/svg"><defs
     id="defs1" /><sodipodi:namedview
     id="namedview1"
     pagecolor="#505050"
     bordercolor="#eeeeee"
     borderopacity="1"
     inkscape:showpageshadow="0"
     inkscape:pageopacity="0"
     inkscape:pagecheckerboard="0"
     inkscape:deskcolor="#505050"
     inkscape:zoom="0.56286219"
     inkscape:cx="480.57945"
     inkscape:cy="262.05349"
     inkscape:window-width="1600"
     inkscape:window-height="829"
     inkscape:window-x="-8"
     inkscape:window-y="-8"
     inkscape:window-maximized="1"
     inkscape:current-layer="layer1" /><g
     inkscape:groupmode="layer"
     inkscape:label="Image"
     id="g1"
     style="display:inline"><path
       id="path2"
       style="display:inline;fill:#000080;fill-opacity:1;stroke-width:1.5699;stroke-dasharray:none"
       d="m 517.74256,17.329585 c -1.91012,0.03741 -4.94355,1.876569 -7.65673,2.062064 -7.87035,0.538037 -11.02705,-1.61056 -11.71386,1.015757 -0.47354,1.81078 -2.49786,5.968062 -6.00359,8.036511 -3.50573,2.068411 -10.37473,8.37059 -13.76257,12.802334 -5.35776,7.008736 -9.46773,8.68365 -8.54153,14.500851 0.87106,5.471039 0.082,8.898793 -4.33969,16.626932 -2.97277,5.195875 -4.52957,8.707272 -5.86445,8.707272 -3.09716,0 -4.76799,-2.500148 -8.56418,11.540276 -1.68605,6.235933 -7.58243,24.747208 -12.80434,34.523518 l -10.47848,22.69701 8.23105,4.83917 c 10.75058,0.94054 16.20693,3.26452 21.16018,-6.18282 3.721,-7.09711 1.08937,-9.28272 4.5889,-8.9193 5.84243,0.60675 34.40814,-22.56531 31.19825,-25.7752 -3.67506,-3.67506 -5.90917,-5.85833 2.84365,-15.265715 6.61055,-7.104893 9.995,-7.983054 14.04056,-7.983054 4.0388,0 6.66744,-1.806155 7.47538,-5.025247 0.57371,-2.285887 2.63022,-9.406088 8.23834,-14.598223 L 536.1169,60.62225 536.1119,50.105505 c -3.25175,-9.392454 -6.52409,-16.870968 -10.28106,-16.870968 -4.74958,0 -7.39667,1.335623 -3.91044,-3.985071 1.64194,-2.505881 2.29075,-8.508025 1.92095,-8.765483 -0.1849,-0.128724 -4.18845,-3.191803 -6.09854,-3.154398 z M 693.75011,135.06462 c -0.30111,-0.30111 -33.53929,23.5496 -72.26598,48.42738 -38.72673,24.87779 -69.28945,43.53703 -70.3629,43.48631 -1.07346,-0.0507 -9.91669,-2.20091 -18.68096,-3.90012 -13.52641,-2.62246 -14.85594,-6.51752 -21.2148,-11.96043 -4.12012,-3.5267 -12.53805,-6.16701 -14.80072,-6.16701 -2.99773,0 -2.6935,-4.07457 -6.13998,-9.73193 -2.60137,-4.2701 -12.60194,-5.5075 -15.30866,-6.65871 -9.86026,-4.19367 -8.31344,3.9514 -18.78182,64.65692 -6.38976,37.05402 -9.84238,56.82418 -9.15541,61.81694 0.88367,6.42221 -2.67617,10.81669 -14.34231,39.18581 l -12.64954,33.53899 2.17057,14.57338 c 1.11135,12.74022 -1.76394,14.27913 -9.08938,39.33144 -4.29795,14.69854 -2.32525,29.16261 -2.8321,32.14016 l -2.88979,9.59641 36.70627,7.21559 c 19.37529,4.37473 41.80149,8.3165 43.38898,8.39937 1.5875,0.0829 10.42339,-8.7131 19.10394,-15.18888 13.3181,-9.93546 20.95094,-19.61811 29.5988,-32.86538 5.63655,-8.63438 9.18574,-11.46509 10.65085,-12.6665 1.4651,-1.20141 11.19113,-1.67526 25.44359,-4.56191 14.25246,-2.88666 26.80508,-7.48082 27.46882,-8.18964 0.66372,-0.70882 3.85912,-9.99996 6.67461,-16.71558 4.86619,-11.60711 9.0928,-10.19758 20.26455,-16.62271 l 8.96841,-7.62851 -21.26219,-24.58833 c -31.66972,-33.97262 -57.13042,-57.08046 -53.74602,-62.48993 1.2302,-1.96631 31.08966,-8.04687 34.98464,-9.13996 3.11797,-0.87504 7.66817,-3.2136 47.96197,-14.55043 l 75.26275,-22.26553 10.82057,-10.05575 c 9.9013,-8.85889 5.90006,-14.43008 -2.78001,-11.94068 -6.61801,1.89803 -7.76557,0.57229 -12.59325,-9.69819 -4.58286,-9.74956 -4.46498,-5.09396 0.55637,-7.82625 l 5.93603,-5.80109 -14.56417,-44.82912 c -5.57072,-18.10085 -12.2006,-26.02499 -12.50173,-26.32613 z"
       sodipodi:nodetypes="ssssssssscccsssssscccsssssssssssssscccssccssssssscccsscccsscccs" /><path
       style="display:inline;fill:#000080;fill-opacity:1;stroke-width:1.5699;stroke-dasharray:none"
       d="m 355.69625,314.28291 c -1.79799,-3.35958 -2.53095,-9.28162 5.38032,-17.19286 6.57595,-6.57596 16.88562,-14.14666 18.34083,-12.69143 1.45519,1.45521 4.90675,8.89623 -0.40205,14.65557 -3.93981,4.2742 -9.8697,11.93984 -9.8697,12.97516 0,3.74288 -11.47838,5.93642 -13.4494,2.25356 z"
       id="path3"
       sodipodi:nodetypes="ssssss" /><path
       style="display:inline;fill:#000080;fill-opacity:1;stroke-width:0.929408;stroke-dasharray:none"
       d="m 409.23279,302.47879 -2.31882,-0.42641 3.49924,-9.22746 c 3.79325,-10.00276 -2.24494,-9.6469 10.34751,-15.01488 4.23777,-1.80647 6.85315,-2.81051 7.11775,-4.97227 0.28251,-2.30804 2.78443,-1.42969 -2.92746,-5.39976 -3.68696,-2.56263 -9.97556,-7.428 -10.36618,-8.40623 -0.39064,-0.97825 -4.13775,-7.65076 -2.54886,-13.87817 l 2.83605,-11.11541 2.75914,-3.8391 c 1.65523,-2.30311 3.44446,-7.04287 4.47203,-11.8466 0.9421,-4.40413 2.05972,-8.29472 2.48362,-8.64579 0.42391,-0.35106 2.60935,-1.78988 4.85653,-3.19736 3.77354,-2.36349 4.42281,-2.46684 8.49596,-1.35221 4.15343,1.13661 4.47463,1.49663 5.51699,6.18403 1.092,4.91051 1.19427,5.00946 7.64013,7.39157 5.99119,2.21408 6.49174,2.6307 6.03216,5.02082 -1.83986,9.56854 -12.1241,67.6685 -12.1241,68.49405 0,0.56124 -5.28372,7.18691 -11.44088,9.91234 -11.20075,4.95798 -15.87639,1.87358 -24.33081,0.31884 z"
       id="path4"
       sodipodi:nodetypes="scsssssscsssssssssss" /><path
       style="display:inline;fill:#ffffff;fill-opacity:1;stroke-width:1.32695;stroke-dasharray:none"
       d="m 222.86282,513.82785 c -0.13137,-0.21261 -0.28272,-3.02574 -0.33627,-6.25144 -0.0987,-5.94111 -0.71111,-13.4059 -2.04894,-24.97317 -1.47395,-12.74412 -1.31955,-12.08955 -3.36181,-14.25285 -1.02003,-1.0805 -2.06693,-2.20767 -2.32642,-2.50487 -0.25949,-0.29718 -2.30847,-2.53997 -4.55331,-4.98396 -7.06255,-7.6892 -6.99024,-7.59104 -6.99843,-9.49749 -0.007,-1.71147 0.35748,-2.58112 6.58917,-15.70567 4.03415,-8.49635 4.52033,-9.715 5.64677,-14.15422 0.59261,-2.33545 1.38762,-4.74171 1.76672,-5.34726 0.97504,-1.55752 3.41919,-2.43757 6.76987,-2.43757 3.57589,0 4.08406,0.4952 6.53634,6.3694 1.59058,3.81009 2.5693,6.75613 5.73986,17.27757 0.9513,3.15696 1.42938,6.36677 2.49261,16.73593 0.69148,6.74365 -1.14697,3.46901 17.05767,30.38296 7.00633,10.35828 13.31215,19.85995 14.01291,21.11484 0.84157,1.50705 1.38426,3.35659 1.59854,5.44798 l 0.3244,3.16633 h -3.54528 -3.54529 l -0.20714,-2.47699 c -0.19606,-2.34454 -1.00015,-3.65578 -15.03832,-24.52286 -8.15714,-12.12524 -15.22944,-22.81329 -15.71618,-23.7512 -0.89856,-1.73146 -1.17427,-3.44244 -2.39533,-14.86474 -0.37651,-3.52218 -0.99604,-7.34382 -1.37668,-8.49253 -0.71619,-2.16133 -0.95625,-2.97378 -2.63868,-8.92981 -0.54976,-1.9462 -1.2849,-4.17548 -1.63365,-4.95398 -0.34876,-0.77848 -0.91084,-2.20422 -1.24907,-3.16831 -1.00823,-2.87385 -1.70384,-2.57934 -2.53457,1.07314 -0.72226,3.17558 -1.20776,4.36935 -5.45708,13.41855 -4.00764,8.53453 -5.30219,11.34331 -5.65953,12.27948 -0.42909,1.12415 -0.25536,1.35987 6.06961,8.236 2.50215,2.72021 5.43077,5.9049 6.50803,7.07711 2.17376,2.36534 2.58982,3.85313 3.49887,12.51106 0.27245,2.59494 0.81339,7.37199 1.2021,10.61567 0.38868,3.24367 0.82486,9.55664 0.9693,14.02883 l 0.26262,8.13123 1.71591,0.47662 c 0.94377,0.26213 2.4144,0.47779 3.26809,0.47925 1.55586,0.002 4.966,1.45727 5.52078,2.35493 0.19577,0.31676 -2.57545,0.47855 -8.19677,0.47855 -4.67091,0 -8.60003,-0.17394 -8.73142,-0.38651 z m 153.6729,-2.35628 c 0.19643,-1.87938 1.03445,-4.32998 2.66216,-7.78482 1.3065,-2.77312 3.43703,-7.29522 4.73451,-10.04915 1.29746,-2.75389 2.35903,-5.07695 2.35903,-5.16233 0,-0.17887 4.74398,-10.2267 6.36979,-13.49131 0.60082,-1.20641 2.4545,-4.28495 4.11928,-6.84122 1.66481,-2.55623 3.17856,-4.9058 3.36388,-5.22128 0.42106,-0.71671 -1.1441,-3.87922 -3.45219,-6.97533 -1.08637,-1.45728 -2.31894,-4.07239 -3.22448,-6.84121 -0.80621,-2.4652 -3.19122,-9.47153 -5.30005,-15.56965 -2.10878,-6.09811 -4.55139,-13.2106 -5.42801,-15.80556 -0.87662,-2.59493 -3.31332,-9.70743 -5.41486,-15.80554 -6.16916,-17.9011 -5.83913,-16.56977 -5.15372,-20.79029 0.43959,-2.70695 0.45817,-3.99434 0.0719,-4.99301 -0.28618,-0.7401 -1.40434,-4.21186 -2.48479,-7.71504 -1.08045,-3.50316 -2.6608,-8.49253 -3.51188,-11.08748 -0.8511,-2.59493 -2.43666,-7.5843 -3.52345,-11.08746 -1.08679,-3.50318 -2.46927,-7.8556 -3.07216,-9.67207 -0.6029,-1.81645 -1.77971,-5.53194 -2.61517,-8.25663 -2.54954,-8.31489 -3.86342,-12.45794 -4.2643,-13.44651 -0.21045,-0.51899 -0.73333,-2.05826 -1.16196,-3.42061 -0.42863,-1.36233 -0.96338,-2.47699 -1.18836,-2.47699 -0.22499,0 -2.17181,0.96251 -4.3263,2.13888 -5.60261,3.05912 -10.67026,5.41005 -11.66185,5.41005 -0.28866,0 -0.89351,0.20012 -1.34411,0.44469 -0.70021,0.38009 -6.38927,2.52108 -20.88108,7.85831 -4.86226,1.79074 -4.85653,1.79214 -14.23667,-3.48769 -1.47806,-0.83196 -3.07042,-1.50784 -3.53856,-1.5019 -0.46813,0.006 -4.88513,3.30066 -9.81551,7.32167 -4.93039,4.021 -9.44204,7.43617 -10.0259,7.58931 -0.58387,0.15311 -1.58967,0.14581 -2.23514,-0.016 -2.13906,-0.53687 -2.74104,-2.21946 -3.19882,-8.94128 -0.23224,-3.41011 -0.60991,-6.39446 -0.83924,-6.63189 -0.40067,-0.41478 -3.5245,0.69772 -9.30936,3.31536 -1.36942,0.61967 -2.76715,1.12667 -3.10607,1.12667 -0.33888,0 -0.74162,0.12547 -0.89496,0.27877 -0.65826,0.65828 -10.61074,4.48282 -11.78936,4.53044 -1.0914,0.0441 -3.77681,-0.87449 -8.61274,-2.94614 -0.51899,-0.22236 -3.38521,-1.39474 -6.36941,-2.60531 -2.98417,-1.21058 -5.80579,-2.46707 -6.27026,-2.79218 -0.93128,-0.65189 -3.69163,-3.18312 -9.77118,-8.96006 -2.20571,-2.09592 -5.39041,-4.57133 -7.07712,-5.50092 -1.68671,-0.92961 -4.02217,-2.22113 -5.1899,-2.8701 -1.16771,-0.64892 -4.73475,-2.60993 -7.92672,-4.35774 -6.81768,-3.73312 -7.51416,-4.57258 -9.03261,-10.88742 -1.42537,-5.92769 -1.24325,-5.74894 -4.82475,-4.73448 -1.6422,0.46514 -3.41045,1.02101 -3.92942,1.23524 -2.68279,1.10744 -12.93541,2.81141 -16.87587,2.80474 -2.12368,-0.002 -3.35737,-0.46149 -8.83765,-3.28023 -3.50316,-1.80184 -10.65321,-5.45439 -15.88898,-8.1168 l -9.51956,-4.84073 -2.27563,0.52631 c -2.27025,0.5251 -6.67113,1.69926 -9.35271,2.49535 -0.77849,0.23109 -2.68929,0.76188 -4.24627,1.17951 -1.55696,0.41764 -3.46779,0.94256 -4.24627,1.1665 -14.794605,4.25614 -14.981925,4.29629 -17.692775,3.79315 -2.8454,-0.52812 -9.63849,-1.82953 -12.267,-2.35011 -1.16772,-0.23126 -2.4416,-0.43292 -2.83084,-0.4481 -0.43879,-0.017 -1.5803,1.75156 -3.00405,4.65461 -1.26298,2.57523 -2.87305,5.23475 -3.57792,5.91008 -1.44225,1.38174 -9.39187,6.33021 -11.71581,7.29281 -1.95785,0.81099 -3.55222,0.1906 -6.02913,-2.34601 -0.9977,-1.02173 -2.09686,-1.8577 -2.44257,-1.8577 -0.59034,0 -2.90723,1.29209 -3.42621,1.91075 -0.12974,0.15466 -0.55437,0.42728 -0.94361,0.60586 -0.38925,0.17854 -1.26788,0.69383 -1.95254,1.14509 -1.69562,1.11761 -11.79397,7.60187 -12.67349,8.13781 -0.38925,0.23719 -2.45657,1.50072 -4.59405,2.80782 -2.13749,1.30712 -11.2669603,6.01003 -20.28773028,10.45091 l 2.47094998,-8.83904 c 5.44938,-2.69361 13.3490903,-7.07334 17.5549103,-9.73273 4.20581,-2.65939 10.18978,-6.4276 13.2977,-8.37381 4.19003,-2.62384 5.80077,-3.90443 6.23111,-4.95397 0.92461,-2.25491 1.8582,-3.06675 3.52668,-3.06675 1.31653,0 2.01406,0.51954 4.80661,3.58018 l 3.2666,3.58017 2.64652,-1.69293 c 1.45558,-0.93114 2.81595,-1.7006 3.02302,-1.70994 1.18549,-0.0534 3.18375,-2.73091 5.49484,-7.36257 1.48777,-2.98168 3.19372,-5.70693 3.94212,-6.29753 1.49997,-1.18367 3.50347,-1.14228 10.28367,0.21249 6.36084,1.27098 8.42548,1.6677 10.14386,1.94917 1.11769,0.18307 3.32849,-0.21039 6.84121,-1.21762 4.96189,-1.42273 8.729065,-2.48513 11.795195,-3.32639 0.77848,-0.2136 2.58314,-0.73167 4.01036,-1.15131 4.86815,-1.43131 9.68013,-2.77778 12.51423,-3.50166 1.63181,-0.41679 3.30071,-0.24665 4.23493,0.43178 0.25949,0.18843 7.372,3.84077 15.80554,8.11633 l 15.33376,7.77371 5.19912,-0.56516 c 4.95071,-0.53814 8.32878,-1.33592 16.25503,-3.83893 4.59836,-1.45209 6.61233,-1.44689 7.99097,0.0206 0.58591,0.62366 1.24255,1.84447 1.45921,2.7129 1.66221,6.66247 2.77532,10.78101 3.02136,11.1791 0.15952,0.25812 4.98911,3.06376 10.73238,6.23471 10.43716,5.76254 10.44579,5.76863 17.40986,12.29233 6.3931,5.98883 7.27247,6.64579 10.6662,7.96848 2.03429,0.79284 4.12332,1.62907 4.64231,1.85832 3.41143,1.50679 8.31103,3.3292 8.95072,3.3292 0.6427,0 9.27206,-3.32426 12.28061,-4.73081 4.80806,-2.24788 14.35987,-5.64896 15.86483,-5.64896 3.33605,0 3.9217,1.22449 4.38053,9.15912 0.13372,2.3128 0.4103,4.36557 0.61459,4.56167 0.20427,0.19608 2.70685,-1.55441 5.56129,-3.89003 9.61524,-7.86758 10.66647,-8.6009 12.26433,-8.55562 0.90463,0.0256 3.81667,1.34973 7.46393,3.39383 3.28933,1.84347 6.27626,3.35177 6.63769,3.35177 0.3614,0 4.34332,-1.38826 8.84871,-3.08502 4.5054,-1.69676 10.84553,-4.07557 14.08922,-5.28625 3.24367,-1.21067 6.74684,-2.65855 7.78482,-3.21749 3.15865,-1.70095 17.81511,-9.74866 19.64961,-10.78943 0.96742,-0.54881 3.72463,-3.45531 6.29705,-6.63798 2.51685,-3.11394 5.07963,-5.97216 5.69503,-6.35163 0.61542,-0.37946 1.53437,-1.65334 2.04211,-2.83084 0.50776,-1.1775 1.76046,-3.94557 2.78377,-6.15128 1.02334,-2.2057 2.52546,-5.44347 3.3381,-7.19505 0.81262,-1.75158 2.09483,-4.51167 2.84938,-6.13351 0.75452,-1.62184 2.36794,-5.17809 3.58537,-7.90278 3.26232,-7.30132 3.94243,-8.79563 6.01255,-13.2106 1.03422,-2.2057 2.41267,-5.1781 3.06326,-6.6053 0.65057,-1.42722 2.03199,-4.39962 3.06979,-6.60532 2.10846,-4.48117 3.03053,-7.13482 3.68873,-10.61567 1.11968,-5.9216 1.96039,-10.03646 5.44636,-26.65711 0.62588,-2.9842 1.44937,-7.01815 1.82996,-8.96436 1.90658,-9.74928 2.64526,-10.66485 8.16542,-10.1209 2.0198,0.19901 3.38602,0.14303 3.56472,-0.14612 0.15936,-0.25784 0.43416,-4.14282 0.6107,-8.63327 l 0.32098,-8.16451 1.85656,-3.57061 c 1.02111,-1.96387 2.44392,-4.63221 3.16177,-5.92969 0.71785,-1.29746 2.53167,-4.69448 4.03072,-7.54892 1.49908,-2.85443 3.25542,-6.14529 3.90303,-7.313 0.6476,-1.16775 2.131,-3.9278 3.29643,-6.1335 1.16544,-2.20572 3.02535,-5.70888 4.13312,-7.78484 1.78628,-3.34741 3.45274,-8.37186 6.18111,-18.636405 0.37936,-1.42722 0.8794,-3.23187 1.11121,-4.010352 0.2318,-0.778494 0.95129,-3.366803 1.59888,-5.751838 1.90864,-7.029547 2.58959,-7.851452 6.76581,-8.166485 3.55492,-0.268176 2.72708,0.647877 7.51182,-8.312148 l 2.64178,-4.947098 -0.32095,-5.047611 c -0.17691,-2.781853 -0.63755,-5.741393 -1.02626,-6.593178 -0.41377,-0.906795 -0.5683,-1.977077 -0.37389,-2.589615 0.31177,-0.982333 14.70398,-19.569307 15.91255,-20.550464 0.55275,-0.448744 1.07839,-0.751178 6.69459,-3.852215 1.55698,-0.859688 2.96178,-1.763432 3.12179,-2.008293 0.45231,-0.692196 -0.0551,-4.681731 -0.79535,-6.254828 -0.3664,-0.778495 -0.98382,-3.007783 -1.37203,-4.953983 -0.38826,-1.946212 -1.25352,-6.0863215 -1.92289,-9.2002515 0.6973,-4.10722543 -1.03586,-5.08779493 -0.10435,-9.1483145 l 580.81575,-0.6789847 c -0.5811,22.3272857 -0.9328,353.5510037 -1.1252,426.6488737 -0.022,8.49173 -8.6081,-0.34516 -10.3057,-1.65774 -7.4713,-5.77672 -33.1363,-25.55787 -36.0809,-27.80919 -6.0417,-4.6192 -9.8812,-7.57995 -15.6018,-12.0311 -3.3735,-2.6248 -7.61975,-5.9085 -9.4362,-7.29711 -3.8222,-2.9219 -5.81264,-4.45414 -21.46725,-16.5253 -6.3576,-4.90231 -13.04547,-10.054 -14.86194,-11.44821 -1.81647,-1.39421 -4.86301,-3.74201 -6.77009,-5.21734 -3.61508,-2.79661 -6.38674,-4.54198 -12.33811,-7.76945 -1.94621,-1.05544 -4.33051,-2.41269 -5.29846,-3.01611 -0.96796,-0.6034 -1.8359,-1.0971 -1.92875,-1.0971 -0.0929,0 -2.69793,-1.40162 -5.78902,-3.11472 -3.09109,-1.7131 -7.21252,-3.97949 -9.15873,-5.03639 -1.94622,-1.05692 -4.33051,-2.41537 -5.29846,-3.01876 -0.96796,-0.60343 -1.83588,-1.09714 -1.92874,-1.09714 -0.0929,0 -2.69794,-1.40399 -5.78902,-3.11998 -10.78678,-5.98819 -15.07797,-8.35757 -18.12308,-10.00677 -1.68671,-0.9135 -3.8587,-2.15533 -4.82666,-2.75963 -0.96794,-0.60427 -1.8469,-1.09868 -1.95325,-1.09868 -0.10635,0 -2.92372,-1.51819 -6.26083,-3.37376 -3.33711,-1.85555 -7.44749,-4.12121 -9.1342,-5.03478 -1.68672,-0.91359 -3.85872,-2.15548 -4.82667,-2.75976 -0.96795,-0.60428 -1.85211,-1.09871 -1.96481,-1.09871 -0.11258,0 -5.75413,-3.07852 -12.53651,-6.8412 -6.78241,-3.76266 -12.43109,-6.84121 -12.55266,-6.84121 -0.12149,0 -1.01298,-0.49371 -1.98092,-1.09711 -0.96796,-0.60341 -3.35226,-1.95715 -5.29848,-3.00829 -1.9462,-1.05114 -4.36367,-2.40015 -5.37217,-2.99779 -1.00848,-0.59767 -2.81314,-1.252 -4.01036,-1.45408 -3.60054,-0.60777 -13.57382,-2.2149 -21.52085,-3.46798 -2.33545,-0.36824 -5.62632,-0.90165 -7.31303,-1.18537 -1.68672,-0.2837 -4.97757,-0.81663 -7.31301,-1.18429 -2.33546,-0.36764 -6.26326,-0.99503 -8.72845,-1.39419 -2.46519,-0.39914 -5.75605,-0.92742 -7.31301,-1.17393 -1.55697,-0.24653 -4.84782,-0.78356 -7.31302,-1.19338 -2.46518,-0.40984 -5.75605,-0.94406 -7.31301,-1.18716 -1.55697,-0.24311 -4.95397,-0.77591 -7.54893,-1.18399 -2.59493,-0.4081 -5.8706,-0.91529 -7.27928,-1.12714 -1.88935,-0.28413 -2.84256,-0.71229 -3.63386,-1.63222 -0.58998,-0.68589 -1.2047,-1.24706 -1.36605,-1.24706 -0.16136,0 -2.87851,2.40225 -6.03816,5.33832 -7.37294,6.85126 -7.92309,7.21574 -9.74951,6.45922 -0.77228,-0.3199 -1.77951,-0.42832 -2.2383,-0.24094 -0.45877,0.18738 -1.8957,0.61857 -3.19316,0.95824 -1.29749,0.33963 -4.26987,1.18204 -6.60531,1.87198 -2.33545,0.68991 -5.41399,1.56621 -6.84121,1.9473 -1.42722,0.3811 -3.23189,0.87751 -4.01037,1.10316 -3.01031,0.87262 -23.66455,6.72595 -25.00579,7.08653 -1.91265,0.51423 -5.31266,1.47121 -13.44652,3.78463 -7.31355,2.08014 -11.17328,3.16871 -13.44652,3.79244 -0.77847,0.2136 -2.58314,0.73115 -4.01035,1.15012 -1.42724,0.41897 -4.1873,1.18695 -6.13351,1.70663 -1.94621,0.5197 -5.23705,1.44134 -7.31301,2.04812 -2.07596,0.60676 -4.19908,1.21622 -4.71808,1.35431 -0.51899,0.13814 -4.02215,1.13084 -7.78483,2.20613 -7.65829,2.18855 -11.35573,3.23175 -13.44651,3.79389 -0.77848,0.20928 -6.4048,1.79247 -12.50289,3.51818 -6.09813,1.72569 -12.25521,3.45339 -13.68242,3.83933 -1.42721,0.38593 -2.78972,0.89613 -3.02778,1.13378 -0.26233,0.26189 0.47666,1.41376 1.87624,2.92448 1.26995,1.3708 3.07528,3.34163 4.01185,4.3796 0.93656,1.03797 2.95852,3.27236 4.4932,4.96532 7.54392,8.32186 14.77118,16.33064 28.94192,32.07158 5.0226,5.57913 9.90654,10.99311 10.85321,12.03108 0.94669,1.03797 4.68197,5.1781 8.30063,9.20025 3.61865,4.02216 6.68871,7.41919 6.82231,7.54892 0.13357,0.12976 2.04758,2.25068 4.25328,4.71316 2.20569,2.46249 4.59479,5.11641 5.30906,5.89758 0.7143,0.7812 1.41526,1.78129 1.5577,2.22244 0.42045,1.30221 -1.06957,3.63503 -2.51113,3.93147 -1.42693,0.29343 -4.37337,1.69916 -12.14046,5.79216 -2.85444,1.50421 -6.9331,3.65309 -9.06369,4.77533 -2.13058,1.12222 -4.16533,2.38485 -4.52163,2.80584 -0.35633,0.42098 -1.55981,2.9947 -2.67443,5.71941 -1.90347,4.65311 -3.0791,7.37596 -5.24327,12.14388 -0.49931,1.10002 -0.91503,2.1616 -0.92384,2.35904 -0.008,0.19746 -0.42623,1.20826 -0.92761,2.24623 -0.50137,1.03799 -0.9188,2.13751 -0.9276,2.44341 -0.008,0.30588 -0.70604,1.28349 -1.54939,2.17245 -1.33651,1.40877 -2.07855,1.72209 -5.77964,2.44033 -5.85352,1.13596 -10.96624,2.15676 -13.21061,2.63766 -3.7593,0.80547 -11.19764,2.32095 -16.98507,3.46048 -2.07595,0.40876 -6.32222,1.28175 -9.43615,1.93997 -3.11393,0.65822 -6.93071,1.4184 -8.48174,1.68928 -1.551,0.27088 -2.93103,0.65125 -3.06675,0.84529 -0.59708,0.8538 -5.86204,8.83469 -9.53521,14.45405 -10.47937,16.03153 -12.13415,18.46965 -13.17991,19.41885 -0.61709,0.56013 -5.89901,4.6508 -11.73763,9.09043 -5.83862,4.4396 -12.90234,9.81996 -15.6972,11.95632 -7.1,5.42721 -7.42377,5.52881 -13.31897,4.17989 -1.03796,-0.23752 -3.47957,-0.7664 -5.42577,-1.17531 -1.94621,-0.40889 -6.08632,-1.30295 -9.20025,-1.98682 -12.71109,-2.79149 -16.14011,-3.54009 -18.16459,-3.96554 -1.16773,-0.2454 -3.60934,-0.77912 -5.4258,-1.18605 -1.81645,-0.40694 -4.68268,-1.03376 -6.3694,-1.39295 -5.32683,-1.13436 -13.65474,-2.94428 -21.61861,-4.69842 -4.23519,-0.93283 -7.97598,-1.69605 -8.31286,-1.69605 -0.3369,0 -0.73932,0.69003 -0.89426,1.53338 -0.15494,0.84335 -0.8319,3.55035 -1.50436,6.01554 -1.10745,4.05994 -3.19565,11.93698 -4.62776,17.45689 l -0.55083,2.12313 -3.48592,0.13991 -3.4859,0.13992 0.28529,-1.55535 c 0.1569,-0.85546 0.83546,-3.57235 1.5079,-6.03755 0.67246,-2.46519 1.83547,-6.81761 2.58447,-9.67205 0.74899,-2.85445 1.70297,-6.46377 2.11991,-8.02073 4.4753,-16.71183 4.7171,-17.69279 4.36115,-17.69279 -0.74514,0 -4.18584,6.13453 -7.9387,14.15423 -2.36793,5.06014 -5.15148,11.00491 -6.18564,13.21062 -4.5412,9.68538 -5.56812,12.24211 -5.56812,13.86266 v 1.70699 h -3.60578 -3.60576 z M 495.24776,489.8073 c 5.0773,-3.82261 9.33761,-7.06492 9.46734,-7.20516 0.12976,-0.14022 3.13404,-2.43901 6.67621,-5.10832 l 6.44028,-4.8533 6.77032,-10.36349 c 16.81477,-25.73873 16.04275,-24.7356 19.57605,-25.43637 1.00117,-0.19855 6.17273,-1.26272 11.49236,-2.3648 8.70993,-1.80446 12.29497,-2.52573 17.45689,-3.51216 0.90823,-0.17356 2.50057,-0.50265 3.53854,-0.73132 2.63398,-0.58027 8.2692,-1.73486 12.73882,-2.61004 7.89936,-1.54675 7.34534,-1.21061 9.16276,-5.55926 1.6222,-3.88159 3.30619,-7.77765 4.55485,-10.53815 0.36989,-0.81771 0.6725,-1.60759 0.6725,-1.75531 0,-0.34384 2.05008,-4.98373 3.63634,-8.23008 1.51852,-3.10766 2.41661,-3.77459 11.22561,-8.33596 10.87051,-5.62888 13.97877,-7.37994 13.82427,-7.788 -0.078,-0.20605 -8.52825,-9.6677 -18.77825,-21.02589 -10.25003,-11.35818 -18.84871,-20.88865 -19.1082,-21.17882 -0.25949,-0.29018 -1.53336,-1.69134 -2.83085,-3.11372 -1.29748,-1.42236 -4.05754,-4.48644 -6.1335,-6.80904 -2.07595,-2.3226 -5.04834,-5.62068 -6.6053,-7.32909 -2.66482,-2.92398 -8.19376,-9.05141 -12.9747,-14.3791 -1.16773,-1.30125 -2.23762,-2.4721 -2.37751,-2.60184 -0.13992,-0.12974 -1.89149,-2.0896 -3.89242,-4.35523 -3.88032,-4.39365 -4.36718,-5.71719 -2.88271,-7.83656 0.83665,-1.19451 1.99955,-1.73985 5.84997,-2.74344 1.42723,-0.37198 3.23189,-0.8567 4.01038,-1.0771 3.01549,-0.85379 13.3269,-3.83408 15.56965,-4.5001 1.29744,-0.3853 3.52675,-1.00998 4.95398,-1.38815 1.42721,-0.3782 5.67349,-1.56782 9.43614,-2.64361 3.76266,-1.0758 7.47814,-2.12772 8.25662,-2.33761 2.14846,-0.57924 5.90944,-1.64093 13.44652,-3.79589 3.76267,-1.0758 7.47815,-2.12772 8.25664,-2.33762 1.69897,-0.45804 5.64491,-1.5753 9.20025,-2.60496 1.42722,-0.41334 4.18728,-1.18273 6.1335,-1.70978 1.9462,-0.52705 5.76784,-1.5956 8.49252,-2.37454 2.7247,-0.77895 7.92638,-2.26673 11.5593,-3.30619 3.63292,-1.03946 7.24224,-2.06162 8.02072,-2.27152 1.92661,-0.51942 5.35687,-1.48496 13.44651,-3.78488 6.18221,-1.75765 12.96359,-3.65769 16.74918,-4.69288 0.77848,-0.21289 4.06933,-1.13677 7.31301,-2.05305 3.24367,-0.9163 6.24754,-1.73739 6.67524,-1.82465 0.42768,-0.0873 4.63453,-3.74462 9.3485,-8.12745 l 8.57089,-7.96878 -0.30069,-1.93918 c -0.52605,-3.39255 -0.69539,-3.70722 -1.81062,-3.36449 -8.53201,2.62202 -11.35152,2.89957 -13.16883,1.29633 -1.10037,-0.97076 -8.25043,-15.26249 -8.61924,-17.22834 -0.48365,-2.57802 0.88496,-3.78373 5.1563,-4.54266 2.00515,-0.35628 3.5846,-0.87477 3.5846,-1.17674 0,-0.29691 -0.5108,-2.12627 -1.13513,-4.06528 -0.62432,-1.93899 -1.81575,-5.75476 -2.64762,-8.47945 -0.83188,-2.7247 -1.78115,-5.80323 -2.1095,-6.84121 -0.32833,-1.03797 -1.07484,-3.4796 -1.65889,-5.42578 -1.69067,-5.63385 -3.32184,-10.93287 -3.99389,-12.97472 -0.34166,-1.03797 -1.16197,-3.69189 -1.82294,-5.89759 -2.31937,-7.7397 -4.21046,-13.94904 -5.24475,-17.22097 -0.57421,-1.81646 -1.43847,-4.62962 -1.92062,-6.25146 -0.4821,-1.62184 -1.06895,-2.94879 -1.30403,-2.94879 -0.23512,0 -2.90193,1.60878 -5.92626,3.57505 -3.02435,1.9663 -9.32045,6.02401 -13.99134,9.01713 -4.6709,2.99314 -11.0403,7.08728 -14.15423,9.09809 -3.11393,2.01083 -14.36653,9.24105 -25.0058,16.06716 -10.63924,6.8261 -21.83399,14.02121 -24.87723,15.98915 -3.04322,1.96791 -8.51437,5.48885 -12.15811,7.8243 -3.64377,2.33545 -9.59312,6.15709 -13.2208,8.49253 -3.62766,2.33546 -9.57792,6.1571 -13.22277,8.49254 -3.64485,2.33545 -9.21293,5.92201 -12.37351,7.9701 -3.1606,2.0481 -6.42112,3.9101 -7.24568,4.13776 -1.59851,0.44138 -3.76438,0.13019 -20.22774,-2.90661 -1.55696,-0.28719 -4.52936,-0.82513 -6.6053,-1.19543 -7.8941,-1.40813 -6.70968,-0.74487 -16.74026,-9.37474 l -6.36047,-5.47228 h -3.40733 c -5.46364,0 -5.64864,-0.16875 -11.0477,-10.07747 l -2.5346,-4.65169 -4.5982,-2.30748 c -2.529,-1.26912 -4.94309,-2.30748 -5.36463,-2.30748 -1.20816,0 -8.65363,6.04597 -8.889,7.2182 -0.1147,0.57113 -0.33793,1.8877 -0.49609,2.92567 -0.482,3.16351 -1.58397,9.74606 -2.13261,12.73881 -0.28541,1.55695 -0.8127,4.6355 -1.17175,6.84121 -1.90575,11.70759 -3.04934,18.43442 -4.21101,24.76989 -0.38067,2.07595 -1.03408,6.00374 -1.45208,8.72843 -0.41799,2.7247 -0.94952,5.80324 -1.1812,6.84122 -0.23167,1.03798 -0.5493,2.73648 -0.70584,3.77444 -0.71768,4.75865 -4.3595,26.27389 -6.34899,37.50871 -1.15655,6.53108 -1.21711,10.18813 -0.23077,13.93715 1.46057,5.55176 1.14799,7.2094 -3.13167,16.60725 -0.50094,1.10001 -0.91081,2.12212 -0.91081,2.27132 0,0.1492 -0.53077,1.43169 -1.17951,2.84996 -0.64873,1.41829 -1.17952,2.69956 -1.17952,2.84726 0,0.14772 -0.29488,0.93761 -0.6553,1.7553 -0.36043,0.8177 -2.40098,5.73299 -4.53458,10.92288 -2.1336,5.18987 -4.17414,10.10516 -4.53459,10.92288 -0.36041,0.81769 -0.65528,1.61619 -0.65528,1.77441 0,0.15823 -0.4078,1.18772 -0.9062,2.28775 -0.49842,1.10001 -2.63935,6.14015 -4.75765,11.20028 -4.32804,10.33867 -4.17692,9.21092 -2.6239,19.58001 0.38865,2.59494 0.96207,7.05352 1.27423,9.90796 0.61928,5.66234 0.82689,4.35856 -2.40394,15.09784 -1.18605,3.94247 -3.04461,10.19591 -4.27683,14.39012 -0.57177,1.94621 -1.42281,4.81244 -1.89122,6.3694 -1.09471,3.63879 -2.92658,9.88896 -4.21761,14.39015 -0.55824,1.94619 -1.2141,4.02625 -1.45749,4.62231 -0.24339,0.59608 -0.44255,2.35062 -0.44255,3.89898 0,1.60238 -0.54274,4.77162 -1.25979,7.35639 -1.22004,4.39784 -1.23209,4.56145 -0.38164,5.18333 0.483,0.35317 1.27166,0.64212 1.75259,0.64212 0.48095,0 2.2981,0.33187 4.03813,0.73747 3.55955,0.82974 5.38435,1.23546 10.47675,2.32929 1.9462,0.41802 4.38781,0.94591 5.42579,1.17307 2.2085,0.48329 7.31415,1.5889 12.14904,2.6308 1.88134,0.40543 4.16369,0.92353 5.07194,1.15136 0.90823,0.2278 5.26066,1.19823 9.67204,2.15644 4.4114,0.95823 8.86998,1.92705 9.90796,2.15292 1.03799,0.22585 3.37344,0.71354 5.18988,1.08376 1.81647,0.3702 5.10731,1.08962 7.31302,1.59865 2.2057,0.50906 4.42096,0.94852 4.92278,0.97661 0.50184,0.0282 5.06658,-3.07649 10.14386,-6.89909 z m 388.13942,-492.2925598 -5.19079,1.95762418 0.74567,5.53285082 -9.95747,20.7977318 c -10.98128,22.936115 -9.90242,20.926234 -17.49093,22.08036 -13.57221,2.064167 -13.40967,2.019122 -17.84867,4.945874 -1.93238,1.274061 -3.61046,2.316485 -3.72906,2.316485 -0.11873,0 -0.88453,0.477685 -1.70204,1.061553 -0.81748,0.583869 -2.03464,1.380033 -2.70474,1.769275 -0.67011,0.389253 -9.33749,5.803248 -19.26085,12.031101 -9.92338,6.227864 -18.732,11.747996 -19.57473,12.266996 -1.31287,0.808541 -38.52068,24.127279 -50.81563,31.846989 -2.27307,1.42722 -10.73306,6.70647 -18.79995,11.73167 -8.06691,5.02519 -14.77497,9.31123 -14.90678,9.52455 -0.13182,0.21331 0.19509,1.72809 0.72649,3.36617 0.53141,1.63811 1.15615,3.6153 1.38832,4.39378 1.74697,5.85827 3.46981,11.51412 3.80855,12.50291 0.46683,1.36271 3.73956,12.05275 5.48881,17.92868 0.65664,2.20569 1.36886,4.54114 1.58273,5.18988 0.21386,0.64874 1.0556,3.4088 1.87053,6.1335 0.81494,2.72468 1.6633,5.48476 1.88526,6.13351 0.22193,0.64872 1.08498,3.4088 1.9179,6.13349 0.83289,2.72469 2.0191,6.54044 2.63599,8.47944 2.07668,6.52736 1.20818,8.99647 -3.38369,9.61943 -1.28473,0.17432 -2.5873,0.4766 -2.8946,0.67177 -0.50521,0.32089 0.89939,3.68617 3.51252,8.41559 l 0.55303,1.00093 5.5596,-1.58007 c 6.60056,-1.87591 7.68403,-1.94128 8.94562,-0.53973 1.22405,1.35987 1.47543,2.06187 2.55985,7.14873 1.40196,6.57645 1.32177,7.05289 -1.69961,10.09847 -1.42722,1.43864 -2.59494,2.75671 -2.59494,2.92907 0,0.17236 1.85774,0.56513 4.12832,0.87282 2.27056,0.30768 5.29605,0.7526 6.72327,0.98872 1.4272,0.23613 4.71806,0.76046 7.313,1.16522 2.59494,0.40473 6.73504,1.06826 9.20024,1.47449 9.14104,1.50632 10.23347,1.68391 14.39013,2.3393 2.33544,0.36826 5.52016,0.87592 7.07713,1.12815 1.55696,0.25223 4.95397,0.80085 7.54891,1.21916 2.59494,0.4183 5.8858,0.9491 7.313,1.17951 9.98173,1.61158 12.5203,2.01056 16.41231,2.57949 4.37008,0.63879 7.50621,1.87361 13.54748,5.33419 2.62891,1.50588 11.56401,6.44317 16.27737,8.9944 1.68673,0.91297 3.8587,2.15437 4.82666,2.75865 0.96793,0.60429 1.85127,1.09871 1.96294,1.09871 0.11164,0 1.76132,0.88324 3.66588,1.96274 1.90456,1.07951 4.3121,2.42455 5.35008,2.98896 1.03798,0.56441 4.11652,2.26099 6.8412,3.77017 2.72471,1.50919 6.33403,3.49137 8.02074,4.40487 1.68671,0.91351 3.85869,2.15535 4.82664,2.75963 0.96795,0.60427 1.87132,1.09869 2.00753,1.09869 0.13623,0 2.95355,1.51954 6.26081,3.37673 3.30728,1.85722 7.18096,4.00635 8.60817,4.77584 1.42721,0.76951 3.01958,1.66013 3.53854,1.97917 0.519,0.31904 2.42982,1.38721 4.24627,2.37373 3.07457,1.66979 26.36176,14.5053 33.26244,18.33372 1.68672,0.93576 5.46775,3.03153 8.4023,4.65726 4.71496,2.61205 10.51444,6.83551 27.49679,20.02443 1.70965,1.32775 9.14062,7.0576 16.51324,12.73296 7.37265,5.67538 14.89104,11.47602 16.70744,12.89036 1.8165,1.41432 9.8844,7.63593 17.9288,13.82578 8.0443,6.18985 20.8694,16.0692 28.5002,21.95411 7.6308,5.88491 9.6318,10.94116 10.9536,11.95912 l 0.5913,-20.34573 c -2.7295,0.0934 1.1256,-379.185397 1.0097,-403.5306587 z M 407.02966,454.19906 c 0.0106,-0.44191 0.21976,-1.29116 0.46234,-1.88724 0.24258,-0.59606 0.96675,-2.88843 1.60927,-5.09413 1.76302,-6.05231 3.15291,-10.77306 4.09787,-13.91833 0.46779,-1.55695 1.21657,-4.10472 1.66396,-5.66168 0.79212,-2.75656 2.37464,-8.03043 3.80336,-12.67493 0.73661,-2.39454 0.70095,-2.83241 -1.23462,-15.16171 -0.24443,-1.55698 -0.67728,-4.76493 -0.9619,-7.1288 -0.51327,-4.26297 -0.50525,-4.33018 0.9869,-8.25664 0.82743,-2.17726 1.77945,-4.59562 2.11562,-5.3741 0.33615,-0.77847 3.19796,-7.67867 6.35956,-15.33374 3.16163,-7.65507 6.16507,-14.84715 6.67435,-15.98239 0.50929,-1.13522 1.34699,-3.1522 1.86156,-4.48216 0.51456,-1.32997 1.35028,-3.31814 1.85713,-4.41815 0.50687,-1.10002 0.92877,-2.16159 0.93759,-2.35903 0.008,-0.19748 0.42622,-1.20827 0.92761,-2.24624 0.50135,-1.03798 0.91879,-2.04017 0.9276,-2.22712 0.008,-0.18692 0.51439,-1.4608 1.12354,-2.83084 0.60915,-1.37003 1.59502,-3.7261 2.19086,-5.23568 1.14051,-2.88966 1.10622,-3.56178 -0.50078,-9.81293 -0.58853,-2.28937 -0.55271,-5.35306 0.10046,-8.60625 0.29656,-1.47668 0.43597,-2.7881 0.3098,-2.91427 -0.20333,-0.20335 -4.07717,1.44765 -14.03379,5.98107 -4.71817,2.14825 -6.08256,2.31218 -12.72893,1.52939 -3.26331,-0.38432 -7.31332,-0.82302 -9.00003,-0.97485 -3.80981,-0.34295 -5.35376,-1.0986 -6.14434,-3.00722 -0.68489,-1.65349 -0.79768,-1.18832 2.45317,-10.11771 1.0392,-2.85444 2.401,-6.623 3.02622,-8.37458 3.18292,-8.91715 3.48009,-9.53937 5.0328,-10.53704 0.84135,-0.54061 3.33441,-1.69815 5.54011,-2.57228 2.2057,-0.87411 4.27893,-1.82259 4.60715,-2.10769 0.45846,-0.39822 -0.29534,-1.11432 -3.25214,-3.08943 -5.8623,-3.91594 -5.46344,-2.9859 -7.27376,-16.96117 -0.38656,-2.98419 -0.91719,-7.01814 -1.17915,-8.96435 -0.83042,-6.16932 -1.05434,-9.31974 -0.74895,-10.53654 0.16311,-0.64988 1.43689,-2.52589 2.83061,-4.1689 2.1697,-2.5578 2.61723,-3.42828 3.11256,-6.0541 1.93145,-10.23874 2.71173,-13.54321 3.5205,-14.90957 0.90333,-1.52611 10.42189,-8.20069 13.0419,-9.14522 1.41821,-0.51128 2.12575,-0.48873 4.48218,0.14287 1.53898,0.41249 4.81513,1.28853 7.28031,1.94679 6.04115,1.61313 6.60531,2.25997 6.60531,7.57348 0,2.61139 0.19745,4.08596 0.58085,4.33789 1.20498,0.79182 6.7481,2.38735 7.11429,2.04776 0.21017,-0.19489 0.6644,-2.13567 1.00939,-4.31284 0.34498,-2.17719 1.09667,-6.50627 1.67041,-9.6202 1.12675,-6.11527 1.12903,-6.05442 -0.93995,-25.0058 -0.25497,-2.33545 -0.69564,-7.00635 -0.97926,-10.37977 -0.59123,-7.03187 -1.11326,-5.2044 5.55828,-19.45825 0.73794,-1.57657 0.53153,-3.16169 -0.37243,-2.86036 -0.28167,0.0939 -1.75041,3.09742 -3.26388,6.6745 -1.78689,4.22335 -3.22017,6.92065 -4.08772,7.69266 l -1.336,1.18888 -10.14385,-0.28239 c -5.57913,-0.15532 -11.536,-0.40745 -13.23748,-0.56029 l -3.0936,-0.27791 -0.58089,7.24424 c -0.86886,10.83527 -0.87064,10.84639 -1.90627,11.88203 -0.82272,0.8227 -1.58921,0.96528 -5.33464,0.99232 l -4.37389,0.0316 -0.30774,1.65133 c -0.16927,0.90822 -0.88442,4.41139 -1.58926,7.78482 -2.2446,10.74297 -3.40794,16.38116 -4.42944,21.46725 -2.86013,14.24075 -2.8944,14.36295 -5.75821,20.52361 -1.20626,2.59496 -2.67517,5.77964 -3.26425,7.07713 -0.58905,1.29746 -1.65172,3.63292 -2.36148,5.18987 -0.70976,1.55698 -1.77041,3.89242 -2.35703,5.18988 -0.58661,1.29748 -1.75775,3.84524 -2.60254,5.6617 -0.84477,1.81646 -2.21157,4.78886 -3.03735,6.60531 -0.82574,1.81646 -1.89803,4.1519 -2.38284,5.18987 -0.48483,1.03799 -1.55157,3.37342 -2.37053,5.1899 -0.81899,1.81645 -2.42532,5.34203 -3.56963,7.83459 -1.14431,2.49259 0.42689,8.36956 0.42689,8.66282 0,0.29326 0.7431,1.93395 1.65134,3.64591 0.90822,1.712 1.65267,3.57278 1.65433,4.13511 10e-4,0.69897 -1.89076,3.27817 -6.45513,7.68253 -4.67055,4.50688 -4.84691,4.91903 -4.64924,5.43417 0.15542,0.40497 -1.54396,3.80933 -1.37793,5.6998 0.35592,4.05281 0.18905,4.31228 -4.95162,7.69896 -1.7764,1.17031 -3.44061,2.3887 -3.69824,2.70751 -0.32184,0.39834 -2.50156,-1.54203 -1.45788,1.70007 0.83486,2.59493 2.41934,7.58431 3.52106,11.08747 1.10171,3.50317 2.18548,6.9002 2.40843,7.54893 0.22293,0.64873 1.60359,5.00115 3.06815,9.67206 1.46455,4.67088 3.04616,9.66024 3.51467,11.08747 3.91585,11.9287 3.94392,12.0577 3.65973,16.82081 -0.30343,5.08618 -0.74104,3.45038 6.73354,25.17007 2.0986,6.09809 5.09982,14.90911 6.66937,19.58 1.56956,4.6709 3.03989,8.91717 3.26739,9.43615 0.22749,0.51898 1.1579,3.1729 2.06754,5.89759 2.74021,8.20785 3.37591,9.85384 4.14223,10.72537 0.40328,0.45866 1.43772,2.09459 2.29876,3.63542 l 1.56554,2.80148 0.5914,-1.38607 c 0.32524,-0.76234 0.60096,-1.74762 0.61265,-2.18952 z M 365.8156,309.3933 c -0.0727,-1.00616 10.78038,-9.97413 13.35975,-15.20994 2.57934,-5.23579 -3.11491,-6.73939 -3.13993,-6.77133 -0.16071,-0.205 -18.49628,17.36462 -18.77659,17.81818 -0.29591,0.47878 3.62407,9.11813 4.31449,10.04757 0.32364,0.43569 0.93421,0.232 2.46821,-0.82343 l 2.03816,-1.4023 z m 60.19114,-7.19594 c 4.56876,-2.10364 7.11134,-3.25157 10.53219,-4.75504 7.83876,-3.44515 7.23213,-3.00366 7.75506,-5.64382 0.43666,-2.20457 1.2659,-6.91048 2.37681,-13.48789 0.24106,-1.42723 0.68321,-3.97499 0.98259,-5.6617 0.29939,-1.68672 0.72627,-4.23447 0.94863,-5.66168 0.36718,-2.35658 1.26621,-7.70116 2.34121,-13.91835 0.22436,-1.29745 0.62767,-3.73907 0.89628,-5.42577 0.26861,-1.68671 0.70299,-4.12832 0.96531,-5.42579 0.58841,-2.9102 3.31411,-19.33471 3.31411,-19.97 0,-0.25395 -1.53927,-0.91973 -3.4206,-1.47951 -4.9243,-1.46525 -7.03541,-2.30071 -8.37458,-3.31425 -1.0695,-0.80941 -1.20152,-1.29604 -1.41543,-5.21715 l -0.2359,-4.32444 -1.88723,-0.61796 c -1.03798,-0.33987 -3.21213,-0.98185 -4.83148,-1.42667 l -2.94425,-0.8087 -4.47956,2.9694 c -2.46378,1.63317 -4.58593,3.306 -4.7159,3.7174 -0.12989,0.4114 -0.4564,1.80957 -0.72543,3.10705 -1.04667,5.04796 -1.86354,9.0249 -2.13198,10.37977 -0.15426,0.77847 -0.37559,1.88429 -0.49182,2.45736 -0.11623,0.57308 -1.30735,2.35896 -2.64692,3.96861 l -2.43559,2.92665 0.57336,5.46756 c 0.31534,3.00715 0.74467,6.63524 0.95408,8.06247 0.20939,1.42722 0.65328,4.9304 0.98645,7.78484 0.33316,2.85442 0.78595,5.41984 1.00619,5.70092 0.22027,0.28106 3.15262,2.36051 6.51638,4.62098 3.36373,2.26047 6.24919,4.52995 6.41212,5.0433 0.4773,1.50383 -0.22455,3.65773 -1.52528,4.68085 -0.66381,0.52217 -1.41159,0.94937 -1.66173,0.94937 -0.25016,0 -1.12386,0.30388 -1.94156,0.6753 -0.81771,0.37139 -3.65658,1.56276 -6.3086,2.64748 -2.65202,1.08471 -5.01012,2.21396 -5.2402,2.50943 -0.41473,0.53259 -1.42961,3.1989 -4.335,11.38877 -0.82849,2.33544 -1.68331,4.67089 -1.89957,5.18988 -1.17967,2.83087 -1.11911,2.98407 1.29516,3.27687 1.24449,0.15093 3.4304,0.45303 4.85762,0.67137 5.36132,0.82011 7.25625,0.63694 10.93506,-1.05691 z m 132.96622,-84.74191 c 4.02218,-2.577 10.17926,-6.5193 13.68242,-8.76069 3.5032,-2.24136 8.28023,-5.32918 10.61568,-6.86175 2.33545,-1.53262 5.30784,-3.43837 6.60531,-4.23504 1.29748,-0.79667 4.26986,-2.69794 6.6053,-4.22507 2.33545,-1.52713 7.43098,-4.81505 11.32338,-7.30647 3.89242,-2.49143 10.15567,-6.516 13.91833,-8.94352 3.76265,-2.4275 9.70744,-6.24618 13.2106,-8.48595 3.50318,-2.23977 9.44796,-6.05768 13.21061,-8.48428 3.76268,-2.42658 9.70744,-6.24658 13.21063,-8.48891 3.50317,-2.24228 8.59869,-5.54988 11.32337,-7.35019 2.72469,-1.80032 5.27246,-3.42052 5.6617,-3.6004 0.38923,-0.1799 1.55695,-0.90464 2.59493,-1.61055 9.43579,-6.41707 15.22453,-9.79827 16.74917,-9.78321 0.66029,0.006 3.3603,-1.37325 6.13349,-3.13439 2.7247,-1.73031 5.3786,-3.40087 5.8976,-3.71234 0.51899,-0.31145 1.89902,-1.18283 3.06675,-1.93638 1.16772,-0.75354 11.35878,-7.14306 22.64676,-14.19892 23.39408,-14.623085 62.61566,-39.188265 66.60192,-41.713977 19.13348,-12.122967 32.6556,-20.40647 34.30818,-21.016831 0.93941,-0.346961 4.25579,-0.995379 7.36972,-1.440913 3.11395,-0.445556 6.72328,-1.056388 8.02075,-1.35741 l 2.35904,-0.547293 8.8347,-17.445515 8.83472,-17.4455035 1.90951,-6.5953701 c 1.40257,-4.8444353 -134.60922,-1.7562584 -379.89798,0.078819 l -0.14973,3.6856885 c 0.40926,1.8164637 1.02814,4.7888437 1.37527,6.6053067 1.23433,6.4589774 1.79695,7.0596624 6.01439,6.4211734 1.64891,-0.249652 5.015,-0.584214 7.4802,-0.74349 2.46519,-0.1593 6.32897,-0.532498 8.58618,-0.829366 4.59831,-0.604764 4.93326,-0.520649 9.19684,2.309359 4.44149,2.948079 4.90194,5.182797 1.97198,9.570484 l -1.94812,2.917345 1.43699,1.264722 c 1.44407,1.270932 6.05758,7.518819 9.12104,12.352193 0.90459,1.427219 2.00022,3.974976 2.43473,5.661689 1.63717,6.355024 2.69869,11.258218 2.69869,12.465165 0,1.379444 -0.29422,1.700371 -8.46893,9.237978 -5.5569,5.123843 -12.41658,12.017019 -12.67273,12.734622 -0.0803,0.225296 0.71577,1.774474 1.76928,3.4426 2.80279,4.43785 2.52382,6.270616 -1.16906,7.680949 -1.8579,0.70954 -3.20353,0.78222 -9.85438,0.53217 l -7.70264,-0.28955 -3.52296,3.87312 c -1.93762,2.13021 -4.41559,4.905885 -5.50663,6.168155 l -1.98367,2.29507 1.97049,1.68666 c 2.42254,2.07362 3.4467,4.26641 2.79421,5.98261 -0.2545,0.66937 -6.14479,6.96109 -13.08956,13.98159 -12.19248,12.32547 -12.63741,12.84023 -12.93399,14.96493 -0.16895,1.21021 -0.98724,3.68659 -1.81845,5.50303 -0.83119,1.81646 -2.03827,4.47037 -2.68238,5.89759 -0.6441,1.42724 -1.50011,3.29487 -1.90226,4.15031 -0.92491,1.96754 -0.83854,3.43973 1.56299,26.63513 0.18134,1.75161 0.42704,3.18471 0.54598,3.18471 0.11897,0 1.69269,-1.27387 3.49722,-2.83085 1.8045,-1.55696 3.61932,-2.83083 4.03289,-2.83083 0.41359,0 3.00235,1.08415 5.75277,2.40919 2.75046,1.32508 5.91644,2.84091 7.03555,3.36853 3.01005,1.41909 4.27009,2.95382 7.40141,9.01492 l 2.83085,5.47946 3.35474,0.007 c 3.57562,0.008 4.77034,0.54059 8.31049,3.70232 4.24631,3.79242 10.63426,9.22975 11.61206,9.88407 1.05531,0.70613 1.95254,0.92026 8.33381,1.98886 1.55696,0.26074 4.52935,0.79448 6.60529,1.1861 2.07597,0.39163 5.6755,1.03646 7.99897,1.43296 2.32349,0.3965 4.32277,0.81916 4.44286,0.93924 0.11993,0.12018 0.87299,0.21283 1.6731,0.20609 1.02364,-0.008 3.62191,-1.40079 8.76774,-4.69776 z M 451.72244,151.27641 c 0.20749,-0.32437 1.80962,-3.97643 3.56028,-8.11568 1.75065,-4.13928 3.46585,-7.80881 3.81155,-8.15451 0.34571,-0.34571 1.39168,-0.75241 2.32439,-0.90376 1.38332,-0.22448 2.01559,-0.0313 3.43099,1.04826 l 1.73515,1.32347 10.99492,-11.04287 c 6.04721,-6.07359 11.25289,-11.45593 11.56816,-11.96076 0.50628,-0.81069 0.29169,-1.18501 -1.83773,-3.20552 -3.39092,-3.21753 -3.32704,-4.34348 0.49146,-8.66458 10.92763,-12.365916 12.77484,-14.268314 14.16761,-14.590817 0.60201,-0.139323 3.81721,-0.09211 7.14489,0.105289 3.3277,0.197262 6.1288,0.280235 6.22465,0.184357 0.0958,-0.09576 -0.34441,-0.996027 -0.9784,-2.000358 -2.21806,-3.513609 -1.92361,-4.151875 5.33464,-11.564793 3.56806,-3.644062 8.50184,-8.446037 10.96397,-10.671044 l 4.47663,-4.045479 -0.5307,-1.582094 c -0.29188,-0.87015 -0.92632,-3.385509 -1.40986,-5.589693 -0.78797,-3.591747 -1.27597,-4.595349 -4.70306,-9.672041 l -3.8239,-5.664525 -2.78142,0.1245 c -2.92868,0.131065 -3.85641,-0.275411 -4.83892,-2.119918 -0.80786,-1.516697 -0.27166,-3.043029 2.79835,-7.965605 2.59852,-4.166571 2.67946,-4.389811 1.86039,-5.131057 -0.91499,-0.828062 0.0106,-0.863718 -17.58263,0.676028 -2.79041,0.244187 -5.30849,0.589247 -5.59574,0.766779 -0.3108,0.192083 -0.41367,0.992309 -0.25399,1.976184 0.47052,2.899428 -0.56307,4.367601 -4.69695,6.67177 -9.15372,5.10222 -7.2851,3.424448 -15.46299,13.883701 l -5.27394,6.745218 0.31431,3.745516 c 0.17286,2.060026 0.47232,5.255625 0.66542,7.101332 0.34384,3.286289 0.31145,3.435024 -1.56405,7.182151 -3.55945,7.111555 -7.19241,13.235377 -8.42893,14.208017 -0.859,0.675675 -1.92543,0.967521 -3.53554,0.967521 -1.94145,0 -2.37742,0.167628 -2.76083,1.061565 -0.43063,1.003991 -2.56151,8.356461 -4.06801,14.036276 -0.37854,1.42722 -0.87358,3.23189 -1.10007,4.01037 -0.22648,0.77848 -0.93578,3.2576 -1.57621,5.50913 -0.64043,2.25154 -2.33234,6.2855 -3.75982,8.96436 -1.42749,2.67884 -3.61903,6.78144 -4.87011,9.1169 -10.5912,19.77087 -11.79257,22.18714 -11.20842,22.54307 0.76243,0.46455 9.28171,1.12945 15.589,1.2167 3.39297,0.0469 4.91923,-0.10706 5.18546,-0.52326 z"
       id="path1"
       sodipodi:nodetypes="ssssssssssssssssscccsssssssssssssssscscssssssssssssssssssssssssssssssssscsssssssssssssssscsscssscsssssssssssssccssssscsssssssssssscsssssssssssssssssssssssssssssssssssssscssssssssssscsssssssssccsssssssssssssssssssssssssssssssssssssssssssssssssssssssssssssssssssssssssssssssssssssssssssssssssssscccsssssssscccsssscssssssssssssssssssssssssssssssssssssssscsssssssssssssssssssssssssssscsscsssssssssssssssssssssssssssssssssssssssssssscccssssssssssssssssssssssscsssssssssssssssssssssssssssssssssssccccsssssssssssssssssssssssssssssssssssssssssssssssssssscsscssscsssssssssssssscssssscssssssssssscssssssssscsssssssssssssscsscsssssscsssssssssssssssscsssssssssssscsssssssscccsccsssssscssssssssscsscssssssssssssssccsssssscccssssscsssssssssscssscssssssssscsssssssssssssss" /></g><g
     inkscape:groupmode="layer"
     id="layer1"
     inkscape:label="Image 1"
     style="display:inline"><path
       style="fill:none;stroke:#000000;stroke-width:7.113;stroke-linecap:round;stroke-linejoin:round;stroke-dasharray:none;paint-order:markers stroke fill"
       d="m 879.50615,-0.67343503 -21.54992,46.46701703 -20.87649,2.69374 c 0,0 -135.36044,84.852818 -135.36044,87.546558 0,2.69374 22.22336,70.71067 24.24366,76.77159 2.02031,6.06091 -10.10152,0.67343 -10.10152,0.67343 0,0 1.34687,6.06092 4.04061,12.12183 2.69374,6.06092 14.81557,-2.69374 14.81557,-2.69374 0,0 0,10.10153 4.04061,13.46871 4.04061,3.36717 -13.4687,18.18274 -22.89679,22.89679 l -6.06092,-0.67344 -143.44166,42.42641 c 0,0 70.03724,85.52625 75.42472,86.19968 5.38748,0.67344 -28.9577,17.50931 -28.9577,17.50931 l -10.77496,27.61084 -57.24198,11.44839 c 0,0 -18.18275,30.30458 -19.52962,33.67176 -1.34687,3.36717 -37.03892,25.59053 -37.03892,25.59053 l -86.19969,-17.50931 4.04061,-14.81557 -6.73435,-6.73435 -2.0203,-6.73435 -26.9374,-70.71068 2.69374,-6.73435 c 0,0 -23.57023,-64.64977 -24.03277,-77.65633 l 25.72833,-26.09646 28.44302,-60.23227 6.69247,-46.84732 13.38495,5.01936 -1.67312,-16.73119 c 0.61787,-7.09714 24.1881,-48.17668 24.1881,-51.54385 0,-3.36718 5.38748,-27.610837 5.38748,-27.610837 l 12.79527,-1.34687 4.71404,-12.795265 -5.38748,-13.468701 23.57023,-22.896791 5.38748,-4.714045 -6.73435,-22.22335597 z"
       id="path5"
       sodipodi:nodetypes="cccccc" /></g></svg>
